<svg xmlns="http://www.w3.org/2000/svg" width="136" height="142" viewBox="0 0 136 142"><g fill="none" fill-rule="evenodd"><path fill="#231F20" d="M81.12 28.538v1.215c-4.758-1.704-9.628-1.132-9.628-1.132l.332.81c-1.956-.142-5.69.578-5.69.578-.54-1.08-2.215-2.074-2.215-2.074H81.12v.603zm54.038 58.344s-7.332-23.06-28.868-33.044c0 0 1.118-2.814-1.274-6.349 0 0 2.892-1.27 3.816-3.029h9.712V19.903L98.428 1.088H40.28L20.164 19.672v32.424S2.688 61.7 1.088 73.327l1.965-.412s-2.541 5.453 0 9.491c2.544 4.04 2.192 2.564 4.395 6.673 2.774 5.18 10.634 8.985 10.634 8.985v10.54l20.81 20.434 17.79.007s-.125.429.25 1.534l1.517 1.92c.742.912 1.879 1.844 3.622 2.63 0 0 .079.306.277.78 0 0 .256 1.046.964 1.74 11.704 9.168 35.326-4.603 35.326-4.603s42.244-7.68 33.7-47.11l2.82.946z"/><path stroke="#231F20" stroke-linecap="round" stroke-linejoin="round" stroke-width=".756" d="M81.12 28.538v1.215c-4.758-1.704-9.628-1.132-9.628-1.132l.332.81c-1.956-.142-5.69.578-5.69.578-.54-1.08-2.215-2.074-2.215-2.074H81.12v.603zm54.038 58.344s-7.332-23.06-28.868-33.044c0 0 1.118-2.814-1.274-6.349 0 0 2.892-1.27 3.816-3.029h9.712V19.903L98.428 1.088H40.28L20.164 19.672v32.424S2.688 61.7 1.088 73.327l1.965-.412s-2.541 5.453 0 9.491c2.544 4.04 2.192 2.564 4.395 6.673 2.774 5.18 10.634 8.985 10.634 8.985v10.54l20.81 20.434 17.79.007s-.125.429.25 1.534l1.517 1.92c.742.912 1.879 1.844 3.622 2.63 0 0 .079.306.277.78 0 0 .256 1.046.964 1.74 11.704 9.168 35.326-4.603 35.326-4.603s42.244-7.68 33.7-47.11l2.82.946z"/><path fill="#965D0F" d="M19.942 56.886v-1.49S8.899 62.558 5.31 69.644l3.262-.742s-5.394 7.362-3.07 12.515c0 0 1.069 1.509 1.545 1.786.476.275 1.949 2.131 2.477 3.348 0 0 5.175 9.153 15.99 9.872 0 0 6.467.517 8.59-2.322l-1.543-.53 2.114-.9s-.007-.892-.85-1.712c0 0 2.109-.576 2.822-1.906l-1.78-.622 2.11-.874s.01-.948-1.063-1.709c0 0 1.664-.387 2.43-1.996l-1.972-.797 2.081-.811s-.08-1.006-2.01-1.942c0 0 1.19-.725 1.462-1.703l-2.653-.829 2.489-.985s-.393-1.017-2.36-1.65c0 0 .937-.819 1.157-1.516l-2.354-.584 2.188-1.186s-.984-5.856-22.6 1.868c0 0 3.992-3.043 6.27-4.285v-8.987s-4.127 2.83-7.362 5.865c0 0 3.625-5.531 7.262-9.424"/><path fill="#7C4701" d="M20.042 65.474v-3.651c-2.23 2.553-4.44 5.897-6.202 9.161 0 0 2.877-2.859 6.202-5.51m0 2.405v-1.15c-2.143 1.484-2.38 2.3-2.987 3.118 0 0 .35-.514 2.987-1.968m18.411 14.365s-.08-1.005-2.01-1.942c0 0 1.19-.725 1.462-1.703l-2.653-.829 2.489-.985s-.393-1.017-2.36-1.65c0 0 .938-.819 1.157-1.516l-2.353-.584 2.188-1.186s-.462-2.697-7.536-2.008c1.906.249 3.429 1.22 3.644 2.486.151.897-.367 1.753-1.3 2.384 1.412.405 2.445 1.236 2.62 2.274.165.962-.45 1.882-1.523 2.523 1.154.441 1.973 1.2 2.127 2.113.21 1.25-.888 2.432-2.613 3.015.577.42.964.949 1.064 1.546.23 1.371-1.103 2.653-3.113 3.164.456.388.722 1.428.81 1.949.21 1.252-1.082 1.662-2.812 2.247 0 0-5.812.81-12.586-3.237.125-.02.26-.065.26-.065l3.09-.654s-6.023-.216-9.734-6.53c0 0 .054 1.255.686 2.693l.067.802s5.175 9.153 15.99 9.872c0 0 6.469.517 8.59-2.322l-1.543-.53 2.115-.9s-.008-.892-.852-1.712c0 0 2.11-.576 2.823-1.906l-1.78-.622 2.11-.873s.012-.95-1.063-1.71c0 0 1.664-.386 2.43-1.996l-1.97-.797 2.08-.811z"/><path fill="#B31B1B" d="M40.579 125.043l-19.502-19.101v-6.97s13.265 3 16.686-4.843c0 0 3.363-.133 4.891-1.565l-.103-.374s-1.754.542-4.437-.111c0 0 1.886-1.524 2.117-3.458 0 0 2.976-.187 4.405-1.524l-.102-.372s-2.142.48-4.367-.098c0 0 1.07-1.538 1.196-3.14 0 0 3.154-.347 4.287-1.64l-.114-.37s-1.457.417-4.188.06c0 0-.22-1.149-.713-1.607 0 0 .624-1.488.513-2.242 0 0 3.692-1.102 4.596-3.177l-.227-.319s-1.025.941-5.018 1.294c0 0-.357-.886-.94-1.302 0 0 .238-1.077.231-1.599 0 0 3.218-1.287 3.94-2.925l-.231-.32s-1.735 1.157-4.253 1.252c0 0-1.264-5.81-14.974-2.33V21.604L41.92 5.164h54.951l17.6 16.545v18.206h-5.069s.22-5.819-5.3-8.285c-5.254-2.345-9.432 2.04-9.988 3.12 0 0-2.768-2.41-7.228-2.22 0 0-1.638-1.203-2.463-1.74v-6.795H58.64s-7.485-2.236-11.523 5.412c-3.837 7.265 2.052 12.758 2.672 13.15 0 0-6.139 7.104-3.714 17.589l1.259-.418s.078 1.898-.12 4.338c-.201 2.442.986 7.406 5.93 10.56l.362-.897s.479.47.804.741v27.03h30.11V90.686h19.28s5.49 13.103-7.474 18.606l.017-1.279s-4.13 2.266-8.556 3.042c0 0-27.574-5.182-29.342 2.952 0 0-1.098.121-3.778-1.058l-.249.332s.037 1.861 3.682 2.861c0 0-1.737 1.294-2.098 3.58 0 0-2.741.046-4.262-1.031l-.247.332s1.012 2.017 4.209 3.045c0 0-1.046 1.948-.536 3.604.507 1.655 0 0 0 0l-14.487-.629z"/><path fill="#FEFEFE" d="M58.564 23.995s1.008.366 1.789 1.068h23.644v5.585s.68.312 1.175.667v-7.32H58.564z"/><path fill="#FEFEFE" d="M41.502 4.07L23.221 21.105v47.342a49.291 49.291 0 0 1 1.05-.244v-46.6l17.65-16.438h54.951l17.6 16.544v18.206h-5.069s-.08.79-.159 1.106h6.324v-19.9L97.27 4.07H41.502m62.199 86.615H85.165V101.5H53.357V73.501s.8.82 1.162 1.197v25.693h29.514V89.577h19.258s.249.44.41 1.11m-81.462 15.695l18.444 18.155 13.406.01c.52.179 1.172 1.062 1.172 1.062-.097.148-.261.03-.261.03l-14.76.004-19.163-18.866v-7.805s.73.087 1.162.08v7.33z"/><path fill="#965D0F" d="M97.46 130.104C77.743 141.5 66 136.592 66 136.592l1.64-1.5-2.733-.137s-.013-.666.977-1.803c0 0-2.614.06-4.533-1.52l1.845-.92-2.886-.629s-.373-1.26.524-2.103c0 0-1.535-.698-2.393-1.375l2.11-.918-2.74-.892s.026-1.033 1.941-2.118c0 0-.534-.232-.854-.95l2.112-.862-2.473-.941s.448-1.726 2.76-2.418c0 0-.459-.612-.442-1.316l2.78-.72-2.537-.903s.353-3.315 13.357-2.706c9.296.433 13.355 2.267 13.355 2.267s5.57-1.543 6.417-2.082l-.203 1.172s22.317-4.836 10.756-29.226c-1.578-7.49-.131-8.933-.131-8.933 2.835-5.01 5.723 9.142 5.723 9.142 6.097 8.026 2.209 19.144 2.209 19.144 8.527-8.754 3.094-19.61 3.094-19.61 2.49 1.841 4.754 6.51 4.754 6.51.593-11.412-9.404-16.763-9.404-16.763 8.193 2.294 13.552 9.456 13.552 9.456-2.23-7.514-7.617-11.973-7.617-11.973 4.664 2.21 6.544 3.884 6.544 3.884-3.279-4.438-6.517-6.657-6.517-6.657 2.309.887 5.591 2.717 6.378 3.162 4.573 5.878 6.86 10.765 6.86 10.765l-3.125-.95s18.158 36.357-29.64 48.935"/><path fill="#231F20" d="M97.897 40.551c0-.168.01-.333.034-.495"/><path fill="#965D0F" d="M88.919 35.537c2.022.237 7.834 1.576 11.8 9.024 0 0 .988 2.185 1.197 2.943 0 0 .648 1.813 1.144 2.738.615 1.139.465 3.258.052 4.652 0 0-.992 2.951-.66 4.548.33 1.597-.786 4.668-1.901 5.975 0 0-3.432 4.73-3.967 6.857l-.454-1.055s-1.102 1.54-2.336 4.154c-1.235 2.62-3.036 5.832-6.725 7.467 0 0 .506-1.67.575-2.516 0 0-.516 1.545-2.465 3.347 0 0-1.046 1.158-4.153.776-3.106-.38-5.735-1.852-5.735-1.852s-1.333-.526-1.537-2.743c0 0-.152-3.753-1.293-5.09 0 0 .108 3.562-.633 6.007 0 0-1.24-1.862-3.98-2.469-2.737-.603-6.127-1.706-7.973-4.435 0 0-.957 1.347-1.083 1.924 0 0-1.417-2.103-3.01-3.244-1.59-1.138-2.787-4.476-2.787-4.476s-.827 1.227-1.084 2.037c0 0-2.356-2.082-2.036-7.344.319-5.26.319-6.802 0-7.872 0 0-1.082.724-1.657 1.257 0 0-.847-7.707 7.179-15.733 0 0-1.174.396-2.383 1.24a7.866 7.866 0 0 1-4.45-7.08c0-4.322 3.51-7.828 7.838-7.828a7.837 7.837 0 0 1 7.774 6.811l.26-.122s3.053-2.276 9.63-2.151l-.432-.625s11.798-.431 16.686 9.269c0 0 .188-2.092-1.401-4.391"/><path stroke="#231F20" stroke-linecap="round" stroke-linejoin="round" stroke-width=".378" d="M88.919 35.537c2.022.237 7.834 1.576 11.8 9.024 0 0 .988 2.185 1.197 2.943 0 0 .648 1.813 1.144 2.738.615 1.139.465 3.258.052 4.652 0 0-.992 2.951-.66 4.548.33 1.597-.786 4.668-1.901 5.975 0 0-3.432 4.73-3.967 6.857l-.454-1.055s-1.102 1.54-2.336 4.154c-1.235 2.62-3.036 5.832-6.725 7.467 0 0 .506-1.67.575-2.516 0 0-.516 1.545-2.465 3.347 0 0-1.046 1.158-4.153.776-3.106-.38-5.735-1.852-5.735-1.852s-1.333-.526-1.537-2.743c0 0-.152-3.753-1.293-5.09 0 0 .108 3.562-.633 6.007 0 0-1.24-1.862-3.98-2.469-2.737-.603-6.127-1.706-7.973-4.435 0 0-.957 1.347-1.083 1.924 0 0-1.417-2.103-3.01-3.244-1.59-1.138-2.787-4.476-2.787-4.476s-.827 1.227-1.084 2.037c0 0-2.356-2.082-2.036-7.344.319-5.26.319-6.802 0-7.872 0 0-1.082.724-1.657 1.257 0 0-.847-7.707 7.179-15.733 0 0-1.174.396-2.383 1.24a7.866 7.866 0 0 1-4.45-7.08c0-4.322 3.51-7.828 7.838-7.828a7.837 7.837 0 0 1 7.774 6.811l.26-.122s3.053-2.276 9.63-2.151l-.432-.625s11.798-.431 16.686 9.269c0 0 .188-2.092-1.401-4.391z"/><path fill="#231F20" d="M62.313 34.822c-2.09 1.338-5.85 4.195-5.85 4.195.144-.573.888-1.976.888-1.976-2.506 1.244-4.075 2.669-4.075 2.669s-2.094-1.107-2.315-4.614c-.219-3.509 2.793-5.066 2.793-5.066-.369-.402-1.664-.687-1.664-.687s4.25-1.81 7.213.657c2.961 2.465 2.413 4.986 2.413 4.986"/><path fill="#7C4701" d="M72.225 38.926s5.028-.567 6.651.426c1.62.991 3.567 3.853 3.567 3.853s4.058 7.07 8.921 6.884c0 0-.402.543-.726.553 0 0 1.286.924 4.297-2.794 2.517-3.103 3.896-1.576 3.896-1.576s-.732-3.358-5.275.2c0 0 1.38-1.784 1.46-4.344 0 0-2.271 4.449-5.028 4.177 0 0-.73-.048-1.865-2.337-1.137-2.29-3.165-6.426-7.059-6.882 0 0 2.434.813 5.274 7.552l-2.517-3.14s-2.757-4.788-8.026-3.76c0 0-2.515.47-3.57 1.188m27.183 11.71s.553 3.3-1.97 5.912c0 0 2.234-.108 3.146-2.058.914-1.95-1.176-3.854-1.176-3.854"/><path fill="#231F20" d="M83.92 50.742s2.497-1.748 4.526-.374l1.937 1.49-.371.16s-1.719-1.065-3.094-1.157c-1.378-.094-2.376.088-2.813.193l-.185-.312zm2.497 1.903s1.844-1.43 3.717.499l-.374.158s-1.86-.749-3.131-.35l-.212-.307zm6.284 14.817c-.183-.312-1.42-1.286-1.42-1.286-1.512-1.11-1.422-2.082-1.422-2.082-1.373 1.061-4.888.468-5.91.192-1.021-.277-3.399-.524-3.399-.524-8.736-.302-7.203 5.218-7.203 5.218s.646-1.672 1.226-1.962c0 0 1.174 3.986 1.063 8.38-.115 4.395.145 5.504 2.956 6.16 0 0-1.075-.9-1.185-1.613 0 0 1.709 1.28 5.48 1.54 3.77.263 4.742-2.177 4.742-2.177s1.018-2.641 1.287-3.771c.27-1.13.424-3.17 2.065-5.426 1.641-2.253 1.72-2.649 1.72-2.649"/><path fill="#FEFEFE" d="M80.614 64.898s6.205 1.414 8.34.644c0 0 .676.766 1.419 1.136.739.368 1.056.981.54 1.898 0 0-.427 1.018-1.371 1.72 0 0-.428.474-.428-.152 0 0 .315-1.638.357-2.118 0 0 .07-.42-.315-.091 0 0-.266.363-.605.27l-.29-.09s-.25-.035-.317-.51c0 0 .09-.337-.315-.072 0 0-.223.362-.606.314l-.404-.11s-.228-.032-.271-.512c0 0 0-.312-.36-.068 0 0-.226.34-.497.27l-.425-.11s-.269-.097-.29-.471c-.023-.373-.269-.197-.431-.106 0 0-.2.3-.517.248l-.38-.09s-.29-.134-.337-.468l-.047-.248s-.068-.602-.628.066c0 0-.742.986-1.127 1.543 0 0-.695.924-.807.052 0 0-.25-1.324.112-2.945m-1.147 11.879s-.262.325-.449-.084c0 0-.286-.77-.389-1.582l-.157-.876s-.07-.86-.525-.178c0 0-1.21 1.587-.749 3.75 0 0 .25.64.855.616 0 0 .685.014.946-.464 0 0 .051.485.575.621 0 0 .555.167 1.12-.42 0 0-.02.529.625.738 0 0 .482.133.884-.38 0 0 .066.55.642.7 0 0 .502.088.765-.272 0 0 .06.441.44.555 0 0 .35.107.697-.193 0 0 .006.552.374.61 0 0 .445.154.863-.428 0 0 1.002-1.085 1.376-3.08 0 0 .11-.801-.432-.132 0 0-1.085 1.488-1.578 1.955 0 0-.317.162-.306-.138 0 0 .05-.251-.202-.342l-.342-.12s-.273-.14-.43.066c0 0-.228.325-.303.046 0 0 .013-.266-.22-.375l-.436-.116s-.233-.042-.391.131l-.105.086s-.211.207-.307-.12c0 0 .049-.251-.202-.343l-.541-.145s-.218-.058-.394.148l-.105.122s-.228.223-.27-.142c0 0 .05-.268-.294-.371l-.575-.144s-.248-.024-.46.3"/><path fill="#7C4701" d="M68.55 75.811c-3.208-1.725-4.935-5.915-4.935-5.915L62.9 72.52c-2.385-3.73-3.813-8.468-3.813-13.632 0-5.477 1.604-10.48 4.256-14.298 0 0-1.327-.188-2.262-.153 0 0 1.297-1.735 4.916-2.07 0 0-.77 1.592-.598 2.949 0 0 1.368-.746 1.987-.715 0 0-3.603 4.692 3.544 8.84 0 0-5.795-6.107.084-11.541 0 0-2.471.141-3.368.847 0 0 .64-2.007 1.21-2.85 0 0-8.477-.76-12.613 7.208l1.64-.543c-1.955 4.216-2.677 9.42-1.735 14.817a26.857 26.857 0 0 0 2.154 6.845c-1.428-.972-2.341-2.518-2.341-2.518-3.995-5.68-2.065-14.545-2.065-14.545l-2.323 1.427c-.913-5.19 2.582-10.937 2.582-10.937-7.264 7.969-5.936 14.497-5.936 14.497.575-.533 1.657-1.257 1.657-1.257.319 1.07.319 2.612 0 7.872-.32 5.262 2.036 7.344 2.036 7.344.257-.81 1.084-2.037 1.084-2.037s1.197 3.338 2.788 4.476c1.592 1.141 3.009 3.244 3.009 3.244.125-.577 1.083-1.924 1.083-1.924 1.846 2.729 5.236 3.832 7.974 4.435 2.738.607 3.98 2.469 3.98 2.469.014-.052.026-.104.043-.155-.453-1.584-1.395-3.766-3.322-4.803"/><path fill="#231F20" d="M80.322 52.14s-1.7.8-5.328 1.728c0 0 .281.355 2.04.5 0 0-.34.54-1.928 1.6-1.589 1.06-4.769 4.074-4.769 6.758 0 0 .853-.612 1.36-.841 0 0-1.415 4.211.06 7.051 0 0 .342-6.278 4.028-10.258 0 0-1.589.43-1.928.653 0 0 .74-1.08 3.29-3.124 3.519-2.819 3.175-4.067 3.175-4.067"/><path fill="#7C4701" d="M71.698 61.884c-.508.23-1.36.842-1.36.842 0-2.685 3.18-5.698 4.767-6.757 1.589-1.06 1.93-1.6 1.93-1.6a9.077 9.077 0 0 1-1.204-.17c-.907.316-2.16.698-3.488.935l1.013.37s-5.262 2.582-5.17 8.388l1.568-.83s-1.384 4.611 2.216 9.034c0 0-.282-1.357-.199-3.357a5.36 5.36 0 0 0-.014.197c-1.475-2.84-.06-7.052-.06-7.052"/><path fill="#231F20" d="M80.752 50.053C79.355 43.056 72.75 43.7 72.75 43.7l1.357.837c-1.166-.053-2.253.218-2.253.218s1.844.297 2.88.93a2.708 2.708 0 0 0-.546 1.377 2.74 2.74 0 1 0 5.222 1.398 23.633 23.633 0 0 1 1.342 1.593m19.223.695s-.632-.435-1.406-.704c.36-.086.719-.166 1.075-.234 0 0-3.393-1.69-6.073 1.016l-1.657 1.297s1.128.089 1.465.924l.22.594s-1.06-.161-1.685.108c0 0 1.777.446 2.357 1.716l.21.636s-1.39.144-3.194-.768c-1.8-.914-3.866-1.548-5.786.486 0 0-.746.895-.915 2.04 0 0-.05.447.65 1.178l.358.344s.915.966 2.548-.367c0 0 .211-.158.359-.361.202-.273.65-.648 1.273-.428.625.224 1.08.912.313 1.921 0 0-.361.771-1.945 1.21 0 0 .624.913 2.113 1.948 0 0 1.584-.686 2.426-.87 0 0-.935-.992-.43-2.036 0 0 .38-1.38 1.366-1.262.985.12.577 1.324.577 1.324s-.552 1.268.24 1.394c0 0 .698.106 1.37-.322 0 0 .698 1.826-1.92 5.4 0 0-1.083 1.467-.962 2.13l2.45-2.388s3.268-3.13 1.394-6.892c0 0 .89-2.129-.647-3.229l-.32-2.8-.14-.25a2.198 2.198 0 0 0 2.663-1.55c.127-.471.09-.944-.073-1.366.805-.032 1.726.16 1.726.16"/><path fill="#7C4701" d="M98.131 37.785s3.252-4.56 7.489.099h-.758s1.349 2.984-2.66 5.214c0 0 .603 1.157.897 1.945 2.295-.724 3.935-2.924 3.935-5.457a5.67 5.67 0 0 0-5.676-5.666 5.671 5.671 0 0 0-4.832 2.701l1.605 1.164z"/><path fill="#FEFEFE" d="M77.832 47.718a.663.663 0 0 1-1.242-.158.67.67 0 0 1 .203-.624c-.288-.201-.552-.371-.783-.51a1.59 1.59 0 0 0-.33 1.33 1.6 1.6 0 0 0 2.869.577 17.44 17.44 0 0 0-.717-.615m18.369 3.334a.427.427 0 0 1-.02.418.428.428 0 0 1-.59.124.427.427 0 0 1-.189-.31c-.183.06-.368.129-.563.203a1.018 1.018 0 0 0 1.837.306.994.994 0 0 0 .107-.865c-.169.03-.358.069-.582.124m-8.81 4.935s1.3-.946 3.531.316c1.919 1.083 3.534.958 3.534.958s1.245-.112 1.406.845c0 0-.898-.307-2.538-.288-1.638.02-3.004-1.022-3.004-1.022s-.551-.6-2.928-.81"/><path stroke="#231F20" stroke-width=".142" d="M87.392 55.987s1.3-.946 3.53.316c1.919 1.083 3.534.958 3.534.958s1.245-.112 1.406.845c0 0-.898-.307-2.538-.288-1.638.02-3.004-1.022-3.004-1.022s-.551-.6-2.928-.81z"/><path fill="#7C4701" d="M127.499 81.29c-2.286-4.683-3.995-6.44-3.995-6.44s-1.88-1.676-6.544-3.885c0 0 5.386 4.458 7.617 11.973 0 0-5.359-7.162-13.552-9.456 0 0 9.997 5.351 9.404 16.763 0 0-2.263-4.669-4.754-6.51 0 0 5.433 10.856-3.094 19.61 0 0 3.888-11.118-2.209-19.144 0 0 1.772 5.829-1.062 10.838 0 0 .952-7.99-3.44-12.47 0 0-2.234 3.236-6.256 4.677 0 0 1.275-2.085 1.401-3.547 0 0-2.095 2.884-8.057 4.173 0 0 1.004-2.222 1.283-3.24 0 0-10.332 8.108-23.94 2.245 3.78 3.548 10.797 5.22 11.296 5.333l-.044.02c-.258.12-2.086 1.027-6.855.791 0 0 2.606 1.917 6.316 2.313V97.4h-23.5V78.597c.199.489 1.365.971 1.365.971l.248-1.619c.39.33 2.067 1.972 4.805 2.353 5.195.726 7.319 4.768 7.319 4.768v-1.65s7.587 6.488 15.429 2.274c3.645-1.695 7.166-4.369 9.016-8.736l1.025 1.674s1.17-4.582 3.51-8.017c2.17-3.185 4.106-5.532 4.763-8.512 0 0 5.36 2.659 9.914 6.63 0 0-4.154-5.962-8.38-9.091 0 0 4.23 1.992 6.6 4.099 0 0-2.97-4.057-6.093-6.723 0 0 8.064 3.468 16.506 14.435 0 0 4.655 6.196 6.685 10.666l-2.727-.83z"/><path fill="#7C4701" d="M117.141 71.123s6.552 4.246 9.96 10.046l3.125.95-3.554-4.815-3.785-4.12-3.438-1.913-2.308-.148z"/><path fill="#231F20" d="M58.118 130.453s-3.492.474-5.22-.223l-.165.38s2.943 2.343 7.702 2.405m-3.89-8.724s-3.49.47-5.22-.224l-.163.378s2.941 2.344 7.702 2.407m4.72 8.772s-3.492.474-5.22-.223l-.165.378s2.29 1.936 5.638 2.199"/><path fill="#7C4701" d="M72.23 133.961c-2.452-.24-3.364-.845-3.445-2.328-.03-.59.243-1.128.723-1.561-2.204-.115-4.752-1.369-4.83-2.806-.037-.72.013-1.41.708-1.876-1.385-.468-2.744-1.4-2.799-2.453-.048-.923 1.005-1.715 2.085-2.174-.913-.51-1.153-1.207-1.196-2.02-.062-1.166 1.398-2.086 2.982-2.424-.642-.48-.675-1.084-.707-1.746-.06-1.11.936-2.042 2.41-2.42l-.566-.204c-.24.026-.476.05-.7.078a46.056 46.056 0 0 0-.673.089c-.005 0-.011 0-.015.004a21.022 21.022 0 0 0-.977.172c-.21.042-.415.086-.606.134a10.868 10.868 0 0 0-.8.22c-.152.049-.3.1-.435.147-.03.012-.062.022-.09.03-.16.063-.306.124-.443.183l-.066.03a5.81 5.81 0 0 0-.324.163 5.4 5.4 0 0 0-.381.221l-.016.01c-.087.057-.164.116-.24.172-.016.013-.033.024-.049.039a2.46 2.46 0 0 0-.194.17h-.003c-.058.054-.11.112-.156.163-.01.011-.02.021-.027.033-.038.043-.07.087-.1.127-.004.006-.01.012-.013.02-.032.044-.058.089-.08.127a1.074 1.074 0 0 1-.012.023c-.018.032-.03.062-.042.09-.003.005-.007.011-.009.017a.723.723 0 0 0-.027.078l-.003.01c-.005.017-.008.034-.012.044l-.002.01c0 .007-.002.013-.002.013l2.537.904-2.78.72c-.017.704.441 1.315.441 1.315-2.311.693-2.76 2.419-2.76 2.419l2.474.941-2.112.862c.32.718.854.95.854.95-1.915 1.085-1.941 2.118-1.941 2.118l2.74.892-2.11.918c.859.677 2.394 1.375 2.394 1.375-.898.843-.525 2.103-.525 2.103l2.886.63-1.845.92c.176.146.359.273.543.391l.112.071c.18.107.358.209.541.296l.104.045c.168.08.336.15.505.212l.07.027c.18.063.357.12.527.166l.125.036c.165.042.328.08.48.113.03.004.055.01.081.013.136.025.265.049.387.065.032.003.063.012.093.014.128.017.247.032.352.04a.747.747 0 0 1 .094.01l.242.014c.02.001.039.001.057.003l.137.001H65.884c-.581.673-.974 1.346-.977 1.805l2.732.137-.676.617-.963.884.96.307c3.127.86 13.788 2.65 29.89-6.457.193-.612.35-1.301.48-2.016l.54-.35c.074-.022-.459-.538-.384-.561.43-2.881.475-5.844.475-5.844s-5.544 11.302-25.731 12.29"/><path fill="#7C4701" d="M120.896 102.725c-1.097 6.34-4.53 11.621-8.28 15.7 2.86-4.689 2.27-8.429 2.27-8.429-4.652 6.955-3.754 9.933-8.596 11.819l.903-3.328c-2.63 3.37-3.173 7.008-9.707 9.029-.048.306-.099.61-.156.91l-.48 2.018c21.088-4.898 22.134-14.639 24.075-16.566.946-5.095-.029-11.153-.029-11.153m4.555-16.913c2.94 11.432.909 19.501-1.382 24.326.009-.012.016-.025.03-.037.198-.26.394-.517.585-.777l.08-.112c.06-.08.113-.162.169-.242 2.97-5.397 3.935-10.861 4.013-15.5-1.552-4.71-3.495-7.658-3.495-7.658"/><path fill="#FFF" d="M46.987 132.295h-.922v2.548h-.53v-2.548h-.92v-.434h2.372v.434zm2.188 1.756l.842-2.19h.813v2.982h-.53v-2.426h-.014l-.935 2.426h-.363l-.936-2.426h-.015v2.426h-.53v-2.982h.813l.855 2.19z"/></g></svg>